<svg id="visual" viewBox="0 0 900 600" width="900" height="600" xmlns="http://www.w3.org/2000/svg" xmlns:xlink="http://www.w3.org/1999/xlink" version="1.1"><path d="M0 85L13.7 84C27.3 83 54.7 81 82 82C109.3 83 136.7 87 163.8 81C191 75 218 59 245.2 50C272.3 41 299.7 39 327 47C354.3 55 381.7 73 409 84C436.3 95 463.7 99 491 94C518.3 89 545.7 75 573 75C600.3 75 627.7 89 654.8 86C682 83 709 63 736.2 55C763.3 47 790.7 51 818 55C845.3 59 872.7 63 886.3 65L900 67L900 0L886.3 0C872.7 0 845.3 0 818 0C790.7 0 763.3 0 736.2 0C709 0 682 0 654.8 0C627.7 0 600.3 0 573 0C545.7 0 518.3 0 491 0C463.7 0 436.3 0 409 0C381.7 0 354.3 0 327 0C299.7 0 272.3 0 245.2 0C218 0 191 0 163.8 0C136.7 0 109.3 0 82 0C54.7 0 27.3 0 13.7 0L0 0Z" fill="#4b03ba"></path><path d="M0 187L13.7 189C27.3 191 54.7 195 82 188C109.3 181 136.7 163 163.8 153C191 143 218 141 245.2 133C272.3 125 299.7 111 327 123C354.3 135 381.7 173 409 185C436.3 197 463.7 183 491 174C518.3 165 545.7 161 573 162C600.3 163 627.7 169 654.8 167C682 165 709 155 736.2 142C763.3 129 790.7 113 818 113C845.3 113 872.7 129 886.3 137L900 145L900 65L886.3 63C872.7 61 845.3 57 818 53C790.7 49 763.3 45 736.2 53C709 61 682 81 654.8 84C627.7 87 600.3 73 573 73C545.7 73 518.3 87 491 92C463.7 97 436.3 93 409 82C381.7 71 354.3 53 327 45C299.7 37 272.3 39 245.2 48C218 57 191 73 163.8 79C136.7 85 109.3 81 82 80C54.7 79 27.3 81 13.7 82L0 83Z" fill="#5802dc"></path><path d="M0 307L13.7 301C27.3 295 54.7 283 82 271C109.3 259 136.7 247 163.8 250C191 253 218 271 245.2 259C272.3 247 299.7 205 327 204C354.3 203 381.7 243 409 254C436.3 265 463.7 247 491 241C518.3 235 545.7 241 573 251C600.3 261 627.7 275 654.8 275C682 275 709 261 736.2 244C763.3 227 790.7 207 818 202C845.3 197 872.7 207 886.3 212L900 217L900 143L886.3 135C872.7 127 845.3 111 818 111C790.7 111 763.3 127 736.2 140C709 153 682 163 654.8 165C627.7 167 600.3 161 573 160C545.7 159 518.3 163 491 172C463.7 181 436.3 195 409 183C381.7 171 354.3 133 327 121C299.7 109 272.3 123 245.2 131C218 139 191 141 163.8 151C136.7 161 109.3 179 82 186C54.7 193 27.3 189 13.7 187L0 185Z" fill="#6600ff"></path><path d="M0 445L13.7 441C27.3 437 54.7 429 82 427C109.3 425 136.7 429 163.8 437C191 445 218 457 245.2 458C272.3 459 299.7 449 327 449C354.3 449 381.7 459 409 463C436.3 467 463.7 465 491 455C518.3 445 545.7 427 573 420C600.3 413 627.7 417 654.8 417C682 417 709 413 736.2 391C763.3 369 790.7 329 818 344C845.3 359 872.7 429 886.3 464L900 499L900 215L886.3 210C872.7 205 845.3 195 818 200C790.7 205 763.3 225 736.2 242C709 259 682 273 654.8 273C627.7 273 600.3 259 573 249C545.7 239 518.3 233 491 239C463.7 245 436.3 263 409 252C381.7 241 354.3 201 327 202C299.7 203 272.3 245 245.2 257C218 269 191 251 163.8 248C136.7 245 109.3 257 82 269C54.7 281 27.3 293 13.7 299L0 305Z" fill="#8642ff"></path><path d="M0 601L13.7 601C27.3 601 54.7 601 82 601C109.3 601 136.7 601 163.8 601C191 601 218 601 245.2 601C272.3 601 299.7 601 327 601C354.3 601 381.7 601 409 601C436.3 601 463.7 601 491 601C518.3 601 545.7 601 573 601C600.3 601 627.7 601 654.8 601C682 601 709 601 736.2 601C763.3 601 790.7 601 818 601C845.3 601 872.7 601 886.3 601L900 601L900 497L886.3 462C872.7 427 845.3 357 818 342C790.7 327 763.3 367 736.2 389C709 411 682 415 654.8 415C627.7 415 600.3 411 573 418C545.7 425 518.3 443 491 453C463.7 463 436.3 465 409 461C381.7 457 354.3 447 327 447C299.7 447 272.3 457 245.2 456C218 455 191 443 163.8 435C136.7 427 109.3 423 82 425C54.7 427 27.3 435 13.7 439L0 443Z" fill="#a067ff"></path></svg>